# xmcd
#
# Track frame offsets: 
#        150
#        14825
#        32767
#        47608
#        64849
#        81933
#        95452
#        112021
#        127298
#        141458
#        155052
#        172616
#        190572
#        207397
#        226546
#        243495
#        259085
#        274925
#        293587
#        309176
#        327499
#
# Disc length: 4546 seconds
#
# Revision: 1
# Processed by: cddbd v1.5.2PL0 Copyright (c) Steve Scherf et al.
# Submitted via: ExactAudioCopyFreeDBPlugin 1.0
#
DISCID=3011c015
DTITLE=Various Artist - MNM Big Hits 2011.2
DYEAR=2011
DGENRE=11's
TTITLE0=Snoop Dogg vs. David Guetta - Wet
TTITLE1=Adele - Set Fire To The Rain
TTITLE2=Kevin - She's Got Moves
TTITLE3=Katy Perry Feat. Kanye West - E.T.
TTITLE4=Pitbull Feat. Ne-Yo, Afrojack and Nayer - Give Me Everything
TTITLE5=Milow - Little In The Middle
TTITLE6=Jessie J - Price Tag
TTITLE7=Beth Ditto - I Wrote The Book
TTITLE8=Katy B Feat. Ms Dynamite  - Lights On
TTITLE9=Bob Sinclar and Raffaela Carra  - Far L'amore
TTITLE10=Robert Abigail Feat. The Gibson Brothers - Cuba
TTITLE11=Black Eyed Peas - Don't Stop The Party
TTITLE12=Chris Brown Feat. Benny Benassi  - Beautiful People
TTITLE13=Arsenal - Melvin
TTITLE14=Agnes Obel - Riverside
TTITLE15=Hooverphonic - Anger Never Dies
TTITLE16=Swedish House Mafia - Save The World
TTITLE17=Alex Jordan - Happiness
TTITLE18=About E - Dysfunctional
TTITLE19=Kato - Dancing On My Own
TTITLE20=Anouk - Killer Bee
EXTD=
EXTT0=
EXTT1=
EXTT2=
EXTT3=
EXTT4=
EXTT5=
EXTT6=
EXTT7=
EXTT8=
EXTT9=
EXTT10=
EXTT11=
EXTT12=
EXTT13=
EXTT14=
EXTT15=
EXTT16=
EXTT17=
EXTT18=
EXTT19=
EXTT20=
PLAYORDER=
